<?xml version="1.0" encoding="UTF-8"?>
<svg version="1.1" xmlns="http://www.w3.org/2000/svg" width="44" height="45">
<path d="M0 0 C6.23651238 0.88864029 10.61537802 4.36516608 15.75 7.8125 C17.20599609 8.75706055 17.20599609 8.75706055 18.69140625 9.72070312 C19.61308594 10.33494141 20.53476562 10.94917969 21.484375 11.58203125 C22.32709961 12.14124268 23.16982422 12.7004541 24.03808594 13.27661133 C26 15 26 15 26.91064453 16.93383789 C27.02867259 19.66299488 26.25467429 21.0875958 24.9453125 23.4765625 C24.49542969 24.311875 24.04554687 25.1471875 23.58203125 26.0078125 C23.10121094 26.87148438 22.62039062 27.73515625 22.125 28.625 C21.65191406 29.49640625 21.17882813 30.3678125 20.69140625 31.265625 C19.81558859 32.87752872 18.93473401 34.48671256 18.04736328 36.09228516 C17.33966627 37.3813165 16.65763772 38.68472456 16 40 C9.86579525 39.64666981 5.94122617 36.65093774 1.0625 33.25 C0.28970703 32.7240625 -0.48308594 32.198125 -1.27929688 31.65625 C-5.89859892 28.50122375 -10.45840253 25.26559605 -15 22 C-14.14232301 17.90135687 -12.30947933 15.45571317 -9.75 12.125 C-9.34467041 11.59487305 -8.93934082 11.06474609 -8.52172852 10.51855469 C-5.76829056 6.93539647 -2.94834829 3.42388833 0 0 Z " fill="#F15A23" transform="translate(16,3)"/>
<path d="M0 0 C0.66 0.33 1.32 0.66 2 1 C1.505 1.598125 1.01 2.19625 0.5 2.8125 C-1.28276418 4.97029994 -1.28276418 4.97029994 -1 8 C-0.01 8.33 0.98 8.66 2 9 C1.95875 8.21625 1.9175 7.4325 1.875 6.625 C2 4 2 4 4 2 C7.5625 1.8125 7.5625 1.8125 11 2 C12 3 12 3 12.375 5.8125 C12.35449854 10.74310043 10.10744137 14.92037833 8.09375 19.328125 C6.81057821 21.98155111 6.81057821 21.98155111 7 25 C7.99 25 8.98 25 10 25 C10 25.66 10 26.32 10 27 C4.33012454 26.55028982 0.75796481 24.30433405 -3.8125 21.1875 C-4.49248047 20.74857422 -5.17246094 20.30964844 -5.87304688 19.85742188 C-6.51951172 19.42365234 -7.16597656 18.98988281 -7.83203125 18.54296875 C-8.41702393 18.15133545 -9.0020166 17.75970215 -9.60473633 17.35620117 C-11.3788942 15.63171351 -11.74608041 14.4444988 -12 12 C-10.48828125 9.4921875 -10.48828125 9.4921875 -8.3125 6.875 C-7.60738281 6.00617187 -6.90226563 5.13734375 -6.17578125 4.2421875 C-4.14651537 2.15098711 -2.74170293 0.935065 0 0 Z " fill="#F05820" transform="translate(13,10)"/>
<path d="M0 0 C2 1.0625 2 1.0625 3 3 C4.18643364 9.97029763 0.86379685 15.77124186 -2 22 C2.93190637 19.81620269 2.93190637 19.81620269 5.9375 15.75 C5.958125 15.1725 5.97875 14.595 6 14 C7.32 14.66 8.64 15.32 10 16 C9.8671875 17.76171875 9.8671875 17.76171875 9 20 C6.3828125 21.95703125 6.3828125 21.95703125 3.125 23.8125 C2.05507813 24.43769531 0.98515625 25.06289063 -0.1171875 25.70703125 C-3 27 -3 27 -6 26 C-5.39693754 22.43240942 -4.40784452 19.42405258 -2.9375 16.125 C-1.13818307 11.78585303 -0.59503144 8.65713846 -1 4 C-3.31 4 -5.62 4 -8 4 C-8.66 5.98 -9.32 7.96 -10 10 C-11.32 9.67 -12.64 9.34 -14 9 C-13.72253508 5.67042093 -13.18903896 4.21195277 -10.9375 1.6875 C-6.87600519 -0.64569915 -4.64703744 -0.52466552 0 0 Z " fill="#FDEFEA" transform="translate(25,9)"/>
<path d="M0 0 C2.0625 1.6875 2.0625 1.6875 4 4 C4.0625 6.5625 4.0625 6.5625 3 9 C-1.03448276 12 -1.03448276 12 -4 12 C-2.66666667 8 -1.33333333 4 0 0 Z " fill="#F1602F" transform="translate(27,19)"/>
<path d="M0 0 C5.37305699 -0.35233161 5.37305699 -0.35233161 8 0 C10 2 10 2 11 4 C10.67 4.66 10.34 5.32 10 6 C9.278125 5.360625 8.55625 4.72125 7.8125 4.0625 C5.01808816 2.01326465 3.38336726 1.38667054 0 1 C0 0.67 0 0.34 0 0 Z " fill="#EF490F" transform="translate(18,7)"/>
<path d="M0 0 C3 1 3 1 3 1 Z " fill="#091720" transform="translate(29,44)"/>
</svg>
